<?xml version="1.0" encoding="UTF-8" standalone="no"?>
<!-- Created with Inkscape (http://www.inkscape.org/) -->

<svg
   width="246.40356mm"
   height="54.207344mm"
   viewBox="0 0 246.40356 54.207344"
   version="1.1"
   id="svg1"
   xml:space="preserve"
   xmlns="http://www.w3.org/2000/svg"
   xmlns:svg="http://www.w3.org/2000/svg"><defs
     id="defs1" /><g
     id="layer1"
     transform="translate(436.92741,-119.65965)"><path
       style="fill:#000000"
       d="m -395.92775,139.8712 v -19.44688 h 6.35 6.35 v 2.40257 2.40258 l 1.34725,-1.47411 c 1.53435,-1.67882 4.2505,-3.16766 6.56022,-3.59594 3.2943,-0.61085 7.66293,-0.047 10.38156,1.33996 1.51328,0.77202 3.91943,3.25056 4.69356,4.83478 1.4501,2.96757 1.44615,2.92067 1.55505,18.49797 l 0.10126,14.48594 h -6.23403 -6.23403 l -10e-4,-11.9724 c -9.2e-4,-7.43118 -0.1053,-12.3462 -0.27518,-12.9579 -0.90565,-3.26095 -4.52732,-4.97591 -7.95456,-3.76671 -1.46138,0.5156 -2.53172,1.51539 -3.24641,3.03243 -0.54233,1.15116 -0.56352,1.59624 -0.63937,13.4276 l -0.0785,12.23698 h -6.3377 -6.33769 z"
       id="path29" /><path
       id="path23"
       style="fill:#000000"
       d="m -420.85191,160.37327 c -6.37794,-1.01139 -11.40355,-4.50616 -13.79045,-9.58978 -2.5947,-5.52619 -3.0101,-12.65409 -1.09018,-18.70659 1.84422,-5.8139 6.41003,-10.18305 12.1848,-11.65999 2.52298,-0.64527 7.37764,-0.70478 10.20634,-0.12513 5.03999,1.03279 9.58447,4.45283 11.79736,8.87833 0.6145,1.22893 1.29768,2.94879 1.51818,3.82192 0.4652,1.84213 1.00952,7.30579 0.85911,8.62338 l -0.10292,0.90162 -12.91649,0.0687 -12.91649,0.0687 0.12947,1.80956 c 0.37247,5.20572 5.12084,8.2267 10.25195,6.52242 1.46054,-0.48512 3.34393,-2.14312 3.60186,-3.17083 l 0.16774,-0.66831 h 5.80998 5.80998 l -0.18379,0.59531 c -1.6333,5.29026 -4.19544,8.42401 -8.71541,10.65979 -3.50449,1.73348 -8.85215,2.56859 -12.62104,1.97093 z m 9.93807,-25.5953 c -0.33054,-2.60762 -1.61431,-4.6069 -3.66703,-5.71088 -0.85897,-0.46196 -1.50689,-0.56918 -3.43958,-0.56918 -1.93269,0 -2.58061,0.10722 -3.43959,0.56918 -2.03635,1.09518 -3.32679,3.08032 -3.71234,5.71088 l -0.1842,1.25677 h 7.30102 7.30103 z" /><path
       id="path23-2"
       style="fill:#000000"
       d="m -212.2345,160.40765 c -6.37794,-1.01139 -11.40355,-4.50616 -13.79045,-9.58978 -2.59469,-5.52619 -3.01009,-12.65409 -1.09018,-18.70659 1.84423,-5.8139 6.41004,-10.18305 12.18481,-11.65999 2.52298,-0.64527 7.37763,-0.70478 10.20634,-0.12513 5.03998,1.03279 9.58447,4.45283 11.79735,8.87833 0.61451,1.22893 1.29769,2.94879 1.51818,3.82192 0.4652,1.84213 1.00953,7.30579 0.85912,8.62338 l -0.10292,0.90162 -12.91649,0.0687 -12.9165,0.0687 0.12948,1.80956 c 0.37246,5.20572 5.12083,8.2267 10.25194,6.52242 1.46054,-0.48512 3.34393,-2.14312 3.60187,-3.17083 l 0.16773,-0.66831 h 5.80998 5.80998 l -0.18379,0.59531 c -1.6333,5.29026 -4.19544,8.42401 -8.71541,10.65979 -3.50449,1.73348 -8.85215,2.56859 -12.62104,1.97093 z m 9.93807,-25.5953 c -0.33054,-2.60762 -1.61431,-4.6069 -3.66703,-5.71088 -0.85897,-0.46196 -1.50689,-0.56918 -3.43958,-0.56918 -1.93269,0 -2.58061,0.10722 -3.43958,0.56918 -2.03635,1.09518 -3.3268,3.08032 -3.71234,5.71088 l -0.1842,1.25677 h 7.30102 7.30102 z" /><path
       id="path21"
       style="fill:#000000"
       d="m -255.17298,173.73176 c -6.76613,-0.86083 -11.56541,-3.87665 -13.95012,-8.76612 -0.59621,-1.22244 -1.15954,-2.55004 -1.25185,-2.95023 l -0.16783,-0.7276 h 6.37189 6.37189 l 0.39417,0.76223 c 1.76795,3.41884 8.50453,3.72346 11.40262,0.51561 1.63582,-1.81065 2.07052,-3.10944 2.19258,-6.55092 l 0.10727,-3.02411 -1.47416,1.59226 c -2.48746,2.68675 -5.84315,4.05127 -9.96306,4.05127 -8.98313,0 -15.21124,-6.8415 -15.78814,-17.3431 -0.27065,-4.92675 0.87266,-10.17602 2.96743,-13.62439 1.34335,-2.21139 4.32816,-4.90858 6.58235,-5.94807 5.70223,-2.62952 12.19313,-1.60896 16.14984,2.53923 l 1.46561,1.53654 v -2.4939 -2.4939 h 6.23051 6.23051 l -0.0897,19.24844 c -0.0892,19.14914 -0.0928,19.25865 -0.69232,21.22849 -1.28653,4.22683 -3.29833,7.0762 -6.51535,9.22787 -2.25691,1.50952 -4.2206,2.30876 -6.97413,2.83855 -2.47819,0.47681 -7.33517,0.67 -9.60006,0.38185 z m 7.02742,-25.42812 c 2.99984,-1.41009 4.55409,-4.70391 4.32113,-9.15752 -0.11403,-2.18003 -0.24714,-2.73218 -1.02673,-4.25887 -3.17278,-6.21336 -11.45662,-5.40158 -13.4991,1.32286 -0.78181,2.57392 -0.62109,6.3141 0.36375,8.46528 0.86189,1.88263 2.55228,3.53508 4.13752,4.04468 1.59537,0.51285 4.11837,0.32864 5.70343,-0.41643 z" /><path
       id="path1"
       style="fill:#000000"
       d="m -339.43921,173.44275 c -3.89128,-0.40645 -8.08897,-1.99535 -10.64034,-4.02757 -1.73723,-1.38374 -3.39262,-3.61073 -4.3479,-5.8492 -1.23029,-2.88291 -1.69457,-2.66041 5.55121,-2.66041 h 6.30567 l 0.63964,0.99219 c 0.40481,0.62793 1.17388,1.26665 2.09485,1.73979 1.34453,0.69075 1.6363,0.73975 3.83646,0.64429 2.67277,-0.11597 3.91227,-0.60217 5.34426,-2.09631 1.48836,-1.55298 2.02574,-3.16134 2.1493,-6.43281 l 0.10968,-2.9039 -1.72778,1.61626 c -3.6813,3.44367 -8.57623,4.60482 -13.79036,3.27127 -2.84618,-0.72793 -4.46014,-1.67124 -6.80028,-3.97453 -1.61045,-1.5851 -2.23103,-2.43689 -3.08422,-4.23333 -1.73755,-3.65853 -2.04757,-5.25976 -2.02347,-10.45104 0.0191,-4.10964 0.0833,-4.70287 0.74355,-6.87206 0.97897,-3.21613 2.09373,-5.21836 4.07949,-7.32727 2.89979,-3.0796 6.04749,-4.62584 9.98213,-4.90351 4.46226,-0.31491 8.04417,0.91365 10.85299,3.72247 l 1.70533,1.70533 v -2.48905 -2.48904 h 6.1009 6.1009 l -0.10564,19.51302 c -0.11441,21.13229 -0.0816,20.64977 -1.63297,24.01094 -2.11927,4.59159 -6.20378,7.64794 -11.97487,8.96054 -1.85346,0.42156 -7.49732,0.73982 -9.46853,0.53393 z m 6.41453,-25.37777 c 1.39015,-0.57859 3.10048,-2.33884 3.8227,-3.9343 0.52899,-1.16858 0.61069,-1.77384 0.61069,-4.52407 0,-2.86712 -0.0667,-3.31728 -0.68821,-4.64228 -1.46044,-3.11369 -3.65437,-4.57889 -6.85242,-4.57633 -3.08186,0.002 -5.75324,1.94357 -6.79874,4.94016 -0.67386,1.93144 -0.6621,6.39342 0.022,8.35865 0.79139,2.27331 2.8527,4.23642 5.05692,4.81599 1.09865,0.28888 3.6334,0.059 4.82703,-0.43782 z" /><path
       style="fill:#000000;stroke-width:0.244921"
       d="m -297.91918,160.18058 c -4.20788,-0.46465 -7.94248,-2.2156 -10.39611,-4.87417 -2.9685,-3.21646 -4.6271,-7.42729 -5.02109,-12.74748 -0.3116,-4.20769 0.051,-8.05611 1.06227,-11.27553 1.82228,-5.80107 5.70413,-9.6513 11.10384,-11.01338 1.80273,-0.45475 3.11107,-0.60846 5.19515,-0.61036 2.91152,-0.003 4.83489,0.39298 6.90141,1.41958 1.193,0.59268 1.90809,1.12487 3.06188,2.27881 l 0.98823,0.98833 v -1.78044 -1.78044 h 5.50817 5.50814 v 19.24616 19.24615 h -5.50724 -5.50725 l -0.0171,-2.0544 -0.0171,-2.0544 -0.35281,0.44902 c -1.98428,2.52521 -4.65073,3.97596 -8.23153,4.47855 -0.82524,0.11583 -3.51279,0.1686 -4.27884,0.084 z m 5.76908,-9.84795 c 0.86722,-0.10635 1.7211,-0.36013 2.49317,-0.74104 2.49139,-1.22913 4.13697,-3.69629 4.77714,-7.16226 0.18724,-1.0137 0.20437,-3.75926 0.0297,-4.76294 -0.62049,-3.56601 -2.27569,-6.17415 -4.67726,-7.37008 -2.16995,-1.08059 -5.34012,-1.08746 -7.52775,-0.0164 -2.39453,1.17244 -4.12948,3.81111 -4.6862,7.12721 -0.1222,0.72791 -0.18403,2.43651 -0.12593,3.4801 0.093,1.66846 0.40923,3.15886 0.94621,4.45813 1.11051,2.68696 3.41711,4.57472 6.01511,4.9229 0.32078,0.043 0.62697,0.0868 0.68042,0.0974 0.24647,0.0488 1.58162,0.0275 2.07537,-0.0331 z"
       id="path30" /></g></svg>
